<svg id="Layer_1" data-name="Layer 1" xmlns="http://www.w3.org/2000/svg" xmlns:xlink="http://www.w3.org/1999/xlink" viewBox="0 0 100.01 100"><defs><style>.cls-1,.cls-4{fill:none;}.cls-2{clip-path:url(#clip-path);}.cls-3{fill:#e4ad3e;}.cls-4{stroke:#e4ad3e;stroke-miterlimit:10;stroke-width:1.27px;}</style><clipPath id="clip-path"><rect class="cls-1" x="9.21" y="9.2" width="81.6" height="81.6"/></clipPath></defs><title>lupin_amber</title><g class="cls-2"><path class="cls-3" d="M55.48,68.88c-.49.48-3.49-.64-3.49-.64a34.06,34.06,0,0,1-4.49.76c-5.55,0-22.41-.76-22.41-.76s-2.09.68-2.41.36.56-2.29.56-2.29-.68-7.23-.64-9.65c.07-4.21,1.28-13.11,1.28-16.79,0-1.53-.64-5.69-.64-5.69s-.77-2-.5-2.29,2.35.79,2.35.79,8-.85,10.78-.85c4.12,0,16.84.85,16.84.85S55,32,55.41,32.3s-.65,2.15-.65,2.15.3,4.43.37,6.18c.14,3.44.46,11.1.46,14.57,0,2.58-.83,10.48-.83,10.48s1.18,2.74.72,3.19M50.58,54.82c.45-.44,0-2.5,0-2.5v-7s.31-1.41,0-1.71-2.24,0-2.24,0h-18s-1.71-.36-2.08,0c-.76.74,0,4.21,0,4.21V52.5s-.42,1.91,0,2.32,2.56,0,2.56,0h17s2.23.47,2.71,0"/><path class="cls-3" d="M76.22,59.56a2.23,2.23,0,0,0,.34-1.21c0-.19.21-.56-.25-.47s-1-.2-.92.53c0,.55.5.78.83,1.15m-2.76,7.26a1,1,0,0,0,.42-.73A14.8,14.8,0,0,0,74,58.84c0-.16,0-.39-.2-.44a.61.61,0,0,0-.53.24,1,1,0,0,0-.2.61,17.11,17.11,0,0,0,0,4.56c.08,1,.22,1.93.35,3M71.16,59c.33-.45.43-1,1-1.21.23-.07.22-.22.08-.41a10.51,10.51,0,0,0-3.62-3.35,1.67,1.67,0,0,0-1.81,0c-.16.1-.31.26-.57.23a.85.85,0,0,1,.35-.73c.46-.41.18-.52-.22-.69a6,6,0,0,0-2.92-.07c-.2,0-.39.12-.59,0-.06-.3.36-.31.36-.65L61.3,52c1.17-.48,2.38-.15,3.59-.25-1.09-.55-2.29-.81-3.35-1.41a7.32,7.32,0,0,1,3.16.15c-.14-.38-.49-.62-.58-1.07a10.85,10.85,0,0,1,2.5,1.38c-.17-.72.34-1.07.67-1.51a.64.64,0,0,1,.89-.16c.3.15.41.31.06.55-.1.07.08.22.16.32a6.07,6.07,0,0,1,.67.9A2.08,2.08,0,0,0,71.17,52c-.3-.45-.8-.65-1.12-1-.11-.13-.32-.24-.22-.44s.31-.1.49-.07a4.54,4.54,0,0,1,.46.11c1.07.3,1.69-.19,1.6-1.29,0-.29-.21-.58.29-.78.28-.11-.82-3-.6-3.63s-.17-1-.43-1.39a1.23,1.23,0,0,1-.24-1.16.39.39,0,0,0,0-.37A1.63,1.63,0,0,0,69,41.77a1.7,1.7,0,0,1-1.53.5A2,2,0,0,1,65.8,40c.09-.33.31-.34.56-.24s.52.23.83.37a1.52,1.52,0,0,0-.29-.91A.81.81,0,0,1,67.28,38c.24-.11.34-.22.19-.43a1.55,1.55,0,0,1-.36-1c0-.25-.2-.2-.38-.09a2.08,2.08,0,0,1-3.21-1.35,1.7,1.7,0,0,0-.26-.45c-.18-.27-.18-.47.16-.63s.49-.44,0-.66c-.12-.06-.28-.15-.23-.29.22-.71-.31-.67-.75-.75a1.84,1.84,0,0,1-.76-.23c-.31-.24-.67-.54-.65-.95s.63-.3.91-.57a11.09,11.09,0,0,1-1.38-.76c-.38-.28-1.14-.52-.48-1.22a.15.15,0,0,0,0-.23c-.46-.34-.49-.86-.6-1.34,0-.16-.12-.32-.28-.34-.65-.09-1-.71-1.6-.88a1.22,1.22,0,0,1-.84-.8,2.17,2.17,0,0,0-.67-.89,11.68,11.68,0,0,0-3.24-2.29c-.58-.24-1.07-.6-1.62-.86a1.61,1.61,0,0,1-.83-1c-.25-.67,0-1,.72-1.14a6.45,6.45,0,0,1,3.92.52,2.81,2.81,0,0,0,1.24.13c1.29,0,2.48.51,3.77.59a8.62,8.62,0,0,1,3.55,1,1.49,1.49,0,0,1,.73,1c0,.16,0,.35.24.42a.6.6,0,0,0,.11-.08c.17-.22-.28-.64.18-.71a1.29,1.29,0,0,1,1.31.33c.27.33.43.65,1,.63s.79.64,1,1.13c.13.34.16.71.68.28s.92.09,1.09.81c.29-.08.41-.62.75-.39s.88.69.76,1.22a2.48,2.48,0,0,0,.44,1.87c.11.2.16.36.43.16s.37-.63.67-.32.72.63.59,1.17a2,2,0,0,0-.11.82c.17.07.26-.06.38-.09.33-.11.7-.52,1-.07a1,1,0,0,1,0,1.34c-.4.44-.42.57.17,1a2.34,2.34,0,0,1,1.13,2.6c-.15.69.63,1.71.63,1.74.14.65.8.82,1.17,1.24.23.26,0,.72-.25,1a1.57,1.57,0,0,0-.36.89,1.91,1.91,0,0,1-.76,1.41c-.42.33-.63.72,0,1.07.34.19.19.73.65.85a9.82,9.82,0,0,1,1,.42.46.46,0,0,1-.77.08.88.88,0,0,0-1.34,0,1.75,1.75,0,0,1-1.92.2c-.82-.26-.58.52-.81.81A3.43,3.43,0,0,0,73.83,46c.63.48.16,2.6.67,3a2.81,2.81,0,0,1,.76,1.85,6.29,6.29,0,0,0,1.07,2.63c.27-.05.21-.27.23-.42A14.88,14.88,0,0,1,78,48.43a.88.88,0,0,0,.14-.49c-.12-.49,0-.73.57-.74.34,0,.41-.36.44-.65s.14-.54.54-.48a.55.55,0,0,0,.65-.51,1.28,1.28,0,0,1,1.25-1.09,7.19,7.19,0,0,0,.89-.25.68.68,0,0,0,.25.65c.15.12-.76.55-.89.79A10,10,0,0,0,81.35,47c-.1.25-.62,1-.77,1.31a3.07,3.07,0,0,1-.86,1,2.71,2.71,0,0,0-1.13,2.38,1.1,1.1,0,0,1-.28.79c-.18.23-.37.44-.55.66s-.47.43-.29.67.45,0,.66-.12a16.91,16.91,0,0,1,4.38-1.21,3.2,3.2,0,0,0,1.08-.35,12.54,12.54,0,0,1,4.78-.91.5.5,0,0,1,.51.17,16.88,16.88,0,0,1-6.56,2.27,15.58,15.58,0,0,0-4.24.66c-.2.07-.45.07-.6.36a9.35,9.35,0,0,1,4.15.38.6.6,0,0,1-.58.07,6.63,6.63,0,0,0-2.93.21c-.13,0-.29.08-.25.25s.21.15.33.11c1.59-.52,3.16-.09,4.72.14a3,3,0,0,0,1.62-.24,3,3,0,0,1,2.59,0c-.66.14-1.32.31-2,.42-.49.08-.13.28-.08.44a4,4,0,0,0-1.59.26c.12.31.56.17.68.5l-3.85.34a3.61,3.61,0,0,1,1.49,1.29A12.37,12.37,0,0,0,79,57.9c-.22,0-.44-.1-.66-.12-1.11-.1-1.19,0-1.37,1a4.71,4.71,0,0,1-.25,1c-.85,2-.84,4.27-1.4,6.37-.43,1.63-.95,3.25-1.45,4.86-.33,1.06-.7,2.12-1.06,3.17a1.47,1.47,0,0,1-1.65.54c-.23-.14-.07-.32,0-.47.31-1,.59-2.06,1-3.07A13.71,13.71,0,0,0,72.57,65a24,24,0,0,1-.09-5.61c0-.36,0-.56-.47-.46-.28.06-.57.1-.85.15"/><circle class="cls-4" cx="50" cy="50" r="40.16"/></g></svg>