<svg id="Layer_1" data-name="Layer 1" xmlns="http://www.w3.org/2000/svg" xmlns:xlink="http://www.w3.org/1999/xlink" viewBox="0 0 100.01 100"><defs><style>.cls-1,.cls-4{fill:none;}.cls-2{clip-path:url(#clip-path);}.cls-3{fill:#e4ad3e;}.cls-4{stroke:#e4ad3e;stroke-miterlimit:10;stroke-width:1.27px;}</style><clipPath id="clip-path"><rect class="cls-1" x="9.21" y="9.2" width="81.6" height="81.6"/></clipPath></defs><title>sesame_amber</title><g class="cls-2"><path class="cls-3" d="M61.49,60.28c-2.64-2-3.91-6.46-2.26-8.45s3.36-1.33,5-.13c2.53,1.81,3.76,6.54,2.28,8.52-1.08,1.45-3.16,1.48-5.06.06"/><path class="cls-3" d="M37.66,63.61c-1.8-2-4.22-4.13-2.21-6.84,1.89-2.54,4.55-1,6.44.41,2.15,1.65,4.22,4,2.28,6.71s-4.35.69-6.5-.28"/><path class="cls-3" d="M34.39,41.32c2.9,2.2,4.11,6.71,2.39,8.61s-3.44,1.28-5.07,0c-2.61-2-3.62-6.75-1.87-8.54,1.57-1.6,3.19-1,4.55-.09"/><path class="cls-3" d="M47.49,48.08C50,50,51.23,54.79,49.58,56.64c-1.49,1.66-3.19,1.19-4.76.11-2.72-1.86-4-6.42-2.42-8.45,1.17-1.52,3.27-1.61,5.09-.23"/><path class="cls-3" d="M52.14,48.2c-2.78-2.07-3.86-6.53-2.17-8.53,1.44-1.7,3.1-1.33,4.67-.25,2.59,1.78,3.88,6.45,2.34,8.42s-3.26,1.32-4.84.36"/><path class="cls-3" d="M63.17,46.91c-2.82-2.1-4.07-6.7-2.49-8.66s3.32-1.27,5,0c2.75,2,3.74,6.37,1.94,8.37-1.49,1.66-3.09,1.21-4.41.34"/><path class="cls-3" d="M49.86,65.49c-1.44-1.22-2.26-2.74-.63-4.59s6.19-1.77,8.69.15c1.62,1.25,2.63,2.78,1.13,4.71s-6.37,1.91-9.19-.28"/><path class="cls-3" d="M41,33.8c2.74,2.2,3.94,6.65,2.34,8.43s-3.42,1.18-5.06-.11c-2.52-2-3.69-6.39-2.08-8.19s3.4-1.14,4.8-.13"/><circle class="cls-4" cx="50" cy="50" r="40.16"/></g></svg>