<svg id="Layer_1" data-name="Layer 1" xmlns="http://www.w3.org/2000/svg" viewBox="0 0 100.01 100"><defs><style>.cls-1{fill:#cb514f;}.cls-2{fill:none;stroke:#cb514f;stroke-miterlimit:10;stroke-width:1.27px;}</style></defs><title>mustard_red</title><path class="cls-1" d="M49,78.69l-.13,0c-.23,0-.45,0-.68,0s-.58,0-.87-.06q-.84-.07-1.68-.2a21.62,21.62,0,0,1-4.65-1.23q-.47-.19-.92-.41a.9.9,0,0,1-.33-.28,6.09,6.09,0,0,1-1.14-2.65,6.34,6.34,0,0,1-.09-1c0-.52,0-1-.06-1.56,0-.3,0-.61,0-.91,0-.48,0-1-.05-1.43s0-.67,0-1c0-.51,0-1-.05-1.54s0-.83,0-1.24,0-1,0-1.54,0-1,0-1.43,0-1.17,0-1.76,0-1.2,0-1.8,0-1.44,0-2.15c0-1,0-2,0-3-.05-1.51,0-3,0-4.54,0-.34,0-.68,0-1,0-.66,0-1.32,0-2S38,44.6,38,44s.08-1,.13-1.47a6.29,6.29,0,0,1,.58-1.93,25.2,25.2,0,0,1,1.64-2.95c.49-.78,1-1.54,1.51-2.29l1.8-2.6.46-.69a.51.51,0,0,0,.08-.35,9.46,9.46,0,0,1,0-1.06,1.07,1.07,0,0,0,0-.34.93.93,0,0,1,0-.26q0-1.15,0-2.31,0-1,0-2a1.41,1.41,0,0,0,0-.32.42.42,0,0,1,.13-.4,1.25,1.25,0,0,1,.31-.24,4.41,4.41,0,0,1,1-.38,14,14,0,0,1,1.92-.36l.28,0a.17.17,0,0,0,.15-.14l0-.17,1.39-6.91.5-2.47,0-.21a.34.34,0,0,1,.16-.22,1.43,1.43,0,0,1,1.65,0,.38.38,0,0,1,.17.27c.07.36.14.71.22,1.07l1.72,8.49s0,.07,0,.11a.23.23,0,0,0,.23.22l.76.11a11.11,11.11,0,0,1,1.46.32,4.35,4.35,0,0,1,.76.29,1.56,1.56,0,0,1,.29.19.68.68,0,0,1,.18.22.3.3,0,0,1,0,.27.73.73,0,0,0,0,.34c0,.25,0,.49,0,.74s0,.74,0,1.11c0,.82,0,1.64,0,2.46a1,1,0,0,1,0,.17.52.52,0,0,0,0,.24.84.84,0,0,1,0,.19c0,.33,0,.67,0,1a.21.21,0,0,1-.1.22l-.07,0c-.06,0-.07.08,0,.13l.09.12q1,1.25,1.94,2.55a36.32,36.32,0,0,1,2.36,3.69,15,15,0,0,1,1.18,2.64,7.22,7.22,0,0,1,.31,1.51c0,.45.09.89.12,1.34s0,.69.06,1c.06,1,0,2,.05,3a1.11,1.11,0,0,0,0,.26v8a1.11,1.11,0,0,0,0,.26c0,1.52,0,3,0,4.57,0,.69,0,1.39,0,2.09s0,1.36,0,2,0,1.13,0,1.69,0,1.17,0,1.76,0,1,0,1.5c0,.75,0,1.49-.06,2.24,0,.33,0,.67-.06,1A5.88,5.88,0,0,1,61.9,76a.79.79,0,0,1-.2.2c-.26.17-.52.35-.79.51a11.4,11.4,0,0,1-2.17.92,16.72,16.72,0,0,1-2.11.51c-.8.14-1.6.24-2.41.31-.55,0-1.09.07-1.64.11s-1,0-1.51.06a.67.67,0,0,0-.26,0ZM60,46.17S52.26,47,49.73,47c-2.28,0-9-.79-9-.79v19.1s6.75.57,9,.58c2.57,0,10.25-.58,10.25-.58Z"/><circle class="cls-2" cx="50" cy="50" r="40.16"/></svg>