<svg id="Layer_1" data-name="Layer 1" xmlns="http://www.w3.org/2000/svg" xmlns:xlink="http://www.w3.org/1999/xlink" viewBox="0 0 100.01 100"><defs><style>.cls-1,.cls-4{fill:none;}.cls-2{clip-path:url(#clip-path);}.cls-3{fill:#e4ad3e;}.cls-4{stroke:#e4ad3e;stroke-miterlimit:10;stroke-width:1.27px;}</style><clipPath id="clip-path"><rect class="cls-1" x="9.21" y="9.2" width="81.6" height="81.6"/></clipPath></defs><title>peanut_amber</title><g class="cls-2"><path class="cls-3" d="M46.16,81.22C34.52,81.27,25.89,71.11,28,60.38A25.43,25.43,0,0,1,33.08,49.2c4.41-5.47,6.51-11.62,7.36-18.46,1.09-8.8,7.84-13.77,16.78-13.21C64.9,18,71.39,26.6,69.41,33c-1,3.35-2,6.71-3.31,10A28.24,28.24,0,0,0,64.6,57.74,21.35,21.35,0,0,1,54,79.2a14.58,14.58,0,0,1-7.86,2M43,75.87c0,1.76,1,2.93,2.4,2.87,1.9-.09,4.21-3,4.13-5.33-.05-1.52-.57-2.81-2.44-2.82s-4.14,2.84-4.1,5.28M29.79,63.81c.41,1.69.41,4,2.87,3.85s3-2.46,3-4.47c0-1.76-.33-4-2.76-3.87-2.59.13-2.75,2.51-3.14,4.49M41.87,51.42c-.11-1.19-.47-2.42-2.18-2.56-1.91-.16-4.32,2.65-4.34,5.1,0,1.53.53,2.81,2.38,2.89s4.15-2.73,4.14-5.43m2,10.68a2.51,2.51,0,0,0-2.52-2.8c-2,.06-4.16,2.93-4,5.37.08,1.4.59,2.6,2.3,2.67,1.9.07,4.25-2.88,4.25-5.24M46,64.82c.16,1.35.59,2.65,2.49,2.6s4.17-3,4-5.31c-.07-1.41-.63-2.53-2.34-2.55-2,0-4.23,2.7-4.19,5.27m6,5.7a2.21,2.21,0,0,0,2.27,2.36c2.06.09,4.24-2.53,4.2-5.06C58.38,66.3,58,65,56.05,65s-4.16,2.91-4.12,5.51M34.35,71.67c0,2.64,2.15,5.44,4.13,5.39s2.35-1.35,2.35-2.87c0-2.34-2.09-5-4-5s-2.43,1.13-2.51,2.52m15.22-20c0-1.28-.44-2.61-2.33-2.68s-4,2.68-4,5.06c0,1.55.41,2.87,2.3,2.94s4-2.71,4.05-5.32"/><circle class="cls-4" cx="50" cy="50" r="40.16"/></g></svg>