<svg id="Layer_1" data-name="Layer 1" xmlns="http://www.w3.org/2000/svg" xmlns:xlink="http://www.w3.org/1999/xlink" viewBox="0 0 100.01 100"><defs><style>.cls-1,.cls-3{fill:none;}.cls-2{clip-path:url(#clip-path);}.cls-3{stroke:#e4ad3e;stroke-miterlimit:10;stroke-width:1.27px;}.cls-4{fill:#e4ad3e;}</style><clipPath id="clip-path"><rect class="cls-1" x="9.21" y="9.2" width="81.6" height="81.6"/></clipPath></defs><title>celery_amber</title><g class="cls-2"><circle class="cls-3" cx="50.01" cy="50" r="40.16"/></g><path class="cls-1" d="M53.16,52.34c5.43,4,20.69,15.19,20.69,15.19"/><path class="cls-1" d="M73.85,67.53S58.46,56.87,53.09,52.82c-3-2.22-14.25-9-14.25-9"/><path class="cls-4" d="M25.31,34a3.25,3.25,0,0,1,.07-2.91,1.23,1.23,0,0,0-.14-1.32,5.41,5.41,0,0,1-.94-3.26c0-.22,0-.46.21-.41,1,.2,1.74-.75,2.81-.43.61.19.78-.6.8-1.07s0-.83.82-.72c1.35.18,2.71.08,3.33,1.63.21.53.46.12.7-.05s.6-1.14,1,0c.09.24.31,0,.48,0a5.92,5.92,0,0,1,3.14.49,1.51,1.51,0,0,1,.8,1.94,2.35,2.35,0,0,0,.49,2.63,5.31,5.31,0,0,0-.11-2c-.08-.24-.14-.63,0-.78.36-.39.56-1.14,1.11-1.09.33,0,.6.71.84,1.18.41.83.16,1.25-.35,1.87A1.58,1.58,0,0,0,40.49,32c2.62,2.58,5,5.34,7.54,8a60.24,60.24,0,0,0,6.16,5.08A197.22,197.22,0,0,1,71.44,60.48a45.21,45.21,0,0,1,5,5.87c1.44,2.12,1.35,3.49-.35,5.43A10.78,10.78,0,0,1,73.35,74a4.49,4.49,0,0,1-5.64-.31c-1.91-1.58-4-2.88-5.89-4.52A210.62,210.62,0,0,1,44.36,51.82c-2.9-3.24-6.59-5.39-10-7.9l-.87-.61c-1.92-1.39-2.49-1.35-4.29.17-.49.42-1,.26-1.61.15-1-.16-1.59-1-2.61-.93.58-.86.58-.86,5.29-1.8a3.73,3.73,0,0,0-3.3-.43c-1.62.35-2.45-.36-3.21-1.75-.58-1.05-.55-2.19-1-3.21-.34-.7.26-.6.6-.55A1.62,1.62,0,0,0,25,34.26c.11.08.2.24.35.1s0-.24-.08-.35m11.2,1.93c-.12-.86-.78-1.33-1.23-2L35,34.2l1.48,1.74M37,31.19c1,.7,1.52,1.92,2.65,2.7A3.56,3.56,0,0,0,37,31.19m-5.69,7c0,1.3,5.05,5.32,6.8,5.31l-6.8-5.31M34,35.91c-.68,1.84.34,3.11,4,5a22.59,22.59,0,0,0-4-5M53.16,52.34c-3-2.15-14.32-8.51-14.32-8.51m3.9-6-2.68-3.57s2.36,3.52,2.91,4.45c1.67,2.8,6.4,10.29,6.4,10.29s-4.64-8.53-6.64-11.17"/></svg>