<svg id="Layer_1" data-name="Layer 1" xmlns="http://www.w3.org/2000/svg" xmlns:xlink="http://www.w3.org/1999/xlink" viewBox="0 0 100.01 100"><defs><style>.cls-1,.cls-4{fill:none;}.cls-2{clip-path:url(#clip-path);}.cls-3{fill:#e9e9e9;}.cls-4{stroke:#e9e9e9;stroke-miterlimit:10;stroke-width:1.27px;}</style><clipPath id="clip-path"><rect class="cls-1" x="9.21" y="9.2" width="81.6" height="81.6"/></clipPath></defs><title>soya_grey</title><g class="cls-2"><path class="cls-3" d="M64.45,73.44c1,0,2.25.08,3.48,0,4.61-.34,5.31-1.59,3.4-5.65A17.85,17.85,0,0,0,58.89,57.42a7.13,7.13,0,0,1-5.64-5.24c-1.06-3.51-3.18-6.33-6.92-7.49a8.11,8.11,0,0,1-5.72-5.81c-2-6.62-7.67-9.53-13.52-12.16-1-.44-2.09-.61-1.93.93.71,6.87,0,14.23,6.49,19.25a8.27,8.27,0,0,1,3,5.12c1.26,6.06,5.13,9.65,11.21,11,2.82.64,5.39,1.85,6.52,4.49,2.29,5.3,6.53,6.5,12,5.88"/><circle class="cls-4" cx="50" cy="50" r="40.16"/></g></svg>