<svg id="Layer_1" data-name="Layer 1" xmlns="http://www.w3.org/2000/svg" xmlns:xlink="http://www.w3.org/1999/xlink" viewBox="0 0 100.01 100"><defs><style>.cls-1,.cls-4{fill:none;}.cls-2{clip-path:url(#clip-path);}.cls-3{fill:#e4ad3e;}.cls-4{stroke:#e4ad3e;stroke-miterlimit:10;stroke-width:1.27px;}</style><clipPath id="clip-path"><rect class="cls-1" x="9.21" y="9.2" width="81.6" height="81.6"/></clipPath></defs><title>fish_amber</title><g class="cls-2"><path class="cls-3" d="M28.65,49.6A2.55,2.55,0,1,1,31.34,47a2.62,2.62,0,0,1-2.68,2.55m6.52-14.95c-10.68,4.49-17.68,14-17.68,14s4.72,5.51,9.65,4.27c.26-.07.26.65.12.87-.3.47-1,.48-1.6.48-3,0-6.19-2.42-7.81-3.86,2.29,2.72,8.49,9.43,16.55,13.06,6-9.74,1.7-25.7.76-28.85"/><path class="cls-3" d="M69.81,45.54a53.9,53.9,0,0,0-8.74-7.44c-.74-.5-1.09-1.88-4.28-4.26-5-3.73-5.27-3.38-9.9-3.6-.34,0-1.59,2.3-1.93,2.3a24.65,24.65,0,0,0-8.64,1.65c.92,3,5.56,19.38-.77,29.79a25.92,25.92,0,0,0,7.66,1.88c.58,0,1.16.07,1.75.07a22.3,22.3,0,0,0,2.66-.16,25.06,25.06,0,0,0,4.26-.9c8.38-2.54,15.26-9,18.73-12.77,0,0,6.2,8.77,8.45,7.74,2.44-1.12-.72-6.42-1-11.79-.26-5.13,2.44-10.34.81-11.36-2.15-1.35-9.06,8.84-9.06,8.84"/><circle class="cls-4" cx="50.01" cy="50" r="40.16"/></g></svg>