<svg id="Layer_1" data-name="Layer 1" xmlns="http://www.w3.org/2000/svg" xmlns:xlink="http://www.w3.org/1999/xlink" viewBox="0 0 100.01 100"><defs><style>.cls-1,.cls-4{fill:none;}.cls-2{clip-path:url(#clip-path);}.cls-3{fill:#e4ad3e;}.cls-4{stroke:#e4ad3e;stroke-miterlimit:10;stroke-width:1.27px;}</style><clipPath id="clip-path"><rect class="cls-1" x="9.21" y="9.2" width="81.6" height="81.6"/></clipPath></defs><title>milk_amber</title><g class="cls-2"><path class="cls-3" d="M45.76,39c-4.58,3.32-11.06,0-11.06,0s3.37-7.2,6.22-10.47H51C53.84,31.84,57.21,39,57.21,39s-6.87-3.32-11.45,0m7.45-10.7a2.47,2.47,0,0,0,1-2.13,2.14,2.14,0,0,0-1.82-2.35h-13a2.14,2.14,0,0,0-1.82,2.35,2.46,2.46,0,0,0,1,2.13A67.13,67.13,0,0,0,33,38.27l-.17.37V72.41a6.39,6.39,0,0,0,6.48,6.28H52.63a6.4,6.4,0,0,0,6.49-6.28V38.64l-.17-.36a67.47,67.47,0,0,0-5.73-9.93"/><path class="cls-3" d="M68.15,63.38c-1.91,1.25-6.65,0-6.65,0l-.37-4.67H74.91l-.37,4.73s-4.48-1.28-6.39,0M59.9,57.57l1.61,20.56h13l1.61-20.56Z"/><circle class="cls-4" cx="50" cy="50" r="40.16"/></g></svg>