<svg id="Layer_1" data-name="Layer 1" xmlns="http://www.w3.org/2000/svg" viewBox="0 0 100.01 100"><defs><style>.cls-1{fill:none;stroke:#e9e9e9;stroke-miterlimit:10;stroke-width:1.27px;}.cls-2{fill:#e9e9e9;}</style></defs><title>wheat_grey</title><circle class="cls-1" cx="50" cy="50" r="40.16"/><path class="cls-2" d="M38.52,40.18c-1.24,5.16-1.64,9.64.17,14,1.24,3,4,4.3,6.36,3.28s2.86-3.89,1.41-7a4.91,4.91,0,0,0-.61-1.06,81.91,81.91,0,0,1-7.33-9.29m26.15,3c-2.89,3.45-7,4.58-10.84,6.11a7.41,7.41,0,0,0-4.05,4c-1.28,2.85.31,5.15,3.42,5.09a7.38,7.38,0,0,0,3.74-1.21c5.15-3.12,7.32-8,7.74-14M46.72,33.73c4.74,1.22,7.35-1.47,5.89-6.27-1.26-4.16-4.47-7.42-5-12.53-3.77,5.66-4,11-1.23,18.4-2.28-.87-3-3.42-5.18-5.06-.85,5-.84,9.5,1.23,13.8,2.21,4.58,5.61,4.85,8.42.73,2.33,3.47,4.76,4.16,7.17,2,4.4-3.87,4.52-15.71-.16-20.24-.47,6.21-5.09,10.23-7.12,15.68-.4-2.84-3.17-4.09-4-6.55M41.85,68.91a8.16,8.16,0,0,0-2.17-8.41A22.8,22.8,0,0,1,35,54.16c-.47-1-1.36-2-2-.12-1.54,4.73-2.43,9.49.12,14.21,2.09,3.85,4.52,4.41,8.11,1.84.06,5.31,1.82,6.78,7.09,5.19C55.77,73,59.89,67.5,62.72,59.66c-3.95,2.07-7.18,3.78-10.84,4.43s-7.35,1.84-10,4.81"/><path class="cls-2" d="M46,56.21c-1.64,4.85-7.61,14.58-10.51,19.5-.7,1.19-1.49,2.83.2,3.83s3.16,0,4.13-1.5c6.82-10.4,12.07-21.47,12.93-34a38.88,38.88,0,0,0-6.21-23.79c3.66,13.55,2.91,25.75-.56,36"/></svg>