<svg id="Layer_1" data-name="Layer 1" xmlns="http://www.w3.org/2000/svg" viewBox="0 0 100.01 100"><defs><style>.cls-1{fill:#e4ad3e;}.cls-2{fill:none;stroke:#e4ad3e;stroke-miterlimit:10;stroke-width:1.27px;}</style></defs><title>treenut_amber</title><path class="cls-1" d="M71.95,40.4c-1.53-2.88-4.1-4.7-6.64-6.56-2-1.48-3.12-3.25-2.5-5.78.25-1,.7-2.1-.76-2.72s-2.06.15-2.74,1.07c-1.47,2-3.54,2.37-5.87,2-2.5-.37-5-.84-7.5-1.15a10.06,10.06,0,0,0-9.44,3.47,15,15,0,0,0-3.41,6.12c-1.06,4.31-1.21,4.28,3,6.17l13.81,6.14,14.71,6.54a2.38,2.38,0,0,1,.3.13c2.22,1.37,3.85.58,5.42-1.18A12,12,0,0,0,71.95,40.4Zm-4.09,7.72c0-.17,0-.33,0-.49a4.18,4.18,0,0,0-.09-.46,1.93,1.93,0,0,1-.15-.34,6.93,6.93,0,0,0-1.18-1.61,28.33,28.33,0,0,0-2.7-2.16c-.46-.34-2-1.69-2.39-2A2.74,2.74,0,0,1,63,36.13a14,14,0,0,1,4.69,2.67c.31.37,1,1.33,1.07,1.4A11.57,11.57,0,0,1,70.46,44c.22.62.67,2.09.7,2.19a7.56,7.56,0,0,1,.17,2A1.73,1.73,0,0,1,67.85,48.12Z"/><circle class="cls-2" cx="50" cy="50" r="40.16"/><path class="cls-1" d="M63.26,57.84c-4.85-2.05-9.63-4.25-14.45-6.39S39,47.13,34.09,44.87c-1.9-.88-2.88-.5-3.93,1.29-6.3,10.74-4.87,20.77,2.28,30.61,1.93,2.66,3.29,3.44,7.1,3.34C52.82,79.76,60,72.55,64.88,61.8,65.81,59.75,65.31,58.71,63.26,57.84ZM59.69,61A7,7,0,0,1,59,64c-4,6.44-10.57,9.4-17.81,12.23.38-2,1.63-2.43,2.49-3.15,4-3.38,7.69-7,9.8-11.88a7.93,7.93,0,0,1,1.47-2.1,2.8,2.8,0,0,1,3.21-1A2.5,2.5,0,0,1,59.69,61Z"/></svg>