<svg id="Layer_1" data-name="Layer 1" xmlns="http://www.w3.org/2000/svg" xmlns:xlink="http://www.w3.org/1999/xlink" viewBox="0 0 100.01 100"><defs><style>.cls-1,.cls-4{fill:none;}.cls-2{clip-path:url(#clip-path);}.cls-3{fill:#e4ad3e;}.cls-4{stroke:#e4ad3e;stroke-miterlimit:10;stroke-width:1.27px;}</style><clipPath id="clip-path"><rect class="cls-1" x="9.21" y="9.2" width="81.6" height="81.6"/></clipPath></defs><title>eggs_amber</title><g class="cls-2"><path class="cls-3" d="M68.49,53.81c0,12.33-8.28,22.33-18.49,22.33s-18.49-10-18.49-22.33S39.79,23.86,50,23.86c3.83,0,7.38,2.48,10.34,6.22A15.81,15.81,0,0,1,59,31.81l.3,1.27-1.25-.23-.22.49-1.1-.09.34,1.26-.43.4.28,1-.85-.15L55,37.45A4.37,4.37,0,0,0,56,36.83l.61-.49,1.15.41-.38-1,.37-.3.08-1.1,1,.27.3-.24,1.25.27-.1-1.23a10.91,10.91,0,0,1,1.6-1.13,42.5,42.5,0,0,1,6.6,21.55"/><circle class="cls-4" cx="50" cy="50" r="40.16"/></g></svg>