<svg id="Layer_1" data-name="Layer 1" xmlns="http://www.w3.org/2000/svg" xmlns:xlink="http://www.w3.org/1999/xlink" viewBox="0 0 100.01 100"><defs><style>.cls-1,.cls-4{fill:none;}.cls-2{clip-path:url(#clip-path);}.cls-3{fill:#e4ad3e;}.cls-4{stroke:#e4ad3e;stroke-miterlimit:10;stroke-width:1.27px;}</style><clipPath id="clip-path"><rect class="cls-1" x="9.21" y="9.2" width="81.6" height="81.6"/></clipPath></defs><title>crustacens_amber</title><g class="cls-2"><path class="cls-3" d="M72.52,57.14c0,7.61-9.87,15-22,15s-22-7.35-22-15c0-9.85,9.87-10.51,22-10.51s22,1.33,22,10.51"/><path class="cls-3" d="M28.16,47c.71-2.85,1.46-5.79,3.34-8.08a4.5,4.5,0,0,0,.82-1.19,3.46,3.46,0,0,0,.17-1,13.54,13.54,0,0,1,.4-3,9.11,9.11,0,0,1,1.65-2.91,8.79,8.79,0,0,1,2.81-2.51,5.85,5.85,0,0,1,5.49.16c-.14.83-1.19,1.12-1.93,1.58a6.07,6.07,0,0,0-1.25,1.13l-1.24,1.36c1.15-.27,2.51-.75,2.74-1.87a1.26,1.26,0,0,1,1.08,1,3.17,3.17,0,0,1-.2,1.57,21.25,21.25,0,0,1-2.3,4.92,7.59,7.59,0,0,1-.76,1,9.65,9.65,0,0,1-4.28,2.29,2.73,2.73,0,0,1-.44,2.26A36,36,0,0,1,30,49.93c-.29-.36-.63-.61-.92-1a1.05,1.05,0,0,1-.54-.48L28,47.84a.28.28,0,0,1-.1-.22.29.29,0,0,1,.08-.13c.15-.16.09-.3.15-.51"/><path class="cls-3" d="M28.58,46.71h-.23a16.9,16.9,0,0,0-1.15,2.56,1.12,1.12,0,0,0-.09.63c.09.34.45.53.77.69l1.28.59a1.46,1.46,0,0,1,.3.17,1.58,1.58,0,0,1,.23.26,4.94,4.94,0,0,0,2.84,1.75,1.38,1.38,0,0,1-.43-.7c-.34-.09-.35-.54-.48-.85s1-.57.92-.73c-.57-.79-2.06-1.55-1.93-2.5-.47-.48-.94-1-1.42-1.48a.68.68,0,0,0-.43-.26c-.08,0-.17,0-.25,0s0-.08.07-.16"/><path class="cls-3" d="M73,47.53c-.71-2.85-1.46-5.79-3.34-8.08a4.5,4.5,0,0,1-.82-1.19,3.42,3.42,0,0,1-.17-1,13.6,13.6,0,0,0-.4-3,9.1,9.1,0,0,0-1.65-2.91,8.79,8.79,0,0,0-2.81-2.51,5.85,5.85,0,0,0-5.49.16c.14.83,1.19,1.12,1.93,1.58a6,6,0,0,1,1.25,1.13l1.24,1.36c-1.15-.27-2.51-.75-2.74-1.87a1.26,1.26,0,0,0-1.08,1,3.17,3.17,0,0,0,.2,1.57,21.27,21.27,0,0,0,2.3,4.92,7.59,7.59,0,0,0,.76,1,9.65,9.65,0,0,0,4.28,2.29,2.73,2.73,0,0,0,.44,2.26,35.91,35.91,0,0,0,4.22,6.15c.29-.36.63-.61.92-1a1.06,1.06,0,0,0,.54-.48l.55-.64a.29.29,0,0,0,.1-.22.28.28,0,0,0-.08-.13c-.15-.16-.09-.3-.15-.51"/><path class="cls-3" d="M72.61,47.25h.23A16.8,16.8,0,0,1,74,49.83a1.13,1.13,0,0,1,.09.63c-.09.34-.45.53-.77.69L72,51.74a1.42,1.42,0,0,0-.3.17,1.54,1.54,0,0,0-.23.26,4.94,4.94,0,0,1-2.84,1.75,1.38,1.38,0,0,0,.43-.7c.34-.09.35-.54.48-.85s-1-.57-.92-.73c.57-.79,2.06-1.55,1.93-2.5.47-.48.94-1,1.42-1.48a.68.68,0,0,1,.43-.26c.08,0,.17,0,.25,0s0-.08-.07-.16"/><path class="cls-3" d="M31.52,58.14a14.93,14.93,0,0,0-6.17-3.49,49.28,49.28,0,0,0-9.13,6.91,2,2,0,0,0,1.66.08,6.48,6.48,0,0,0,1.47-.87,31.3,31.3,0,0,1,6.4-3.46A10.31,10.31,0,0,0,28.39,60l1.4,1.12c.5-.43,1-1,1.54-1.4a1.44,1.44,0,0,0,.33-.36,1.41,1.41,0,0,0-.12-1.22c-.07,0-.08,0,0,0"/><path class="cls-3" d="M69.77,58.14a14.93,14.93,0,0,1,6.17-3.49,49.28,49.28,0,0,1,9.13,6.91,2,2,0,0,1-1.66.08,6.48,6.48,0,0,1-1.47-.87,31.3,31.3,0,0,0-6.4-3.46A10.31,10.31,0,0,1,72.89,60l-1.4,1.12c-.5-.43-1-1-1.54-1.4a1.44,1.44,0,0,1-.33-.36,1.41,1.41,0,0,1,.12-1.22c.07,0,.08,0,0,0"/><path class="cls-3" d="M33,62.14a13.12,13.12,0,0,0-5.93-1.71A41.78,41.78,0,0,0,20.83,68a1.69,1.69,0,0,0,1.42-.26,5.48,5.48,0,0,0,1.05-1A26.51,26.51,0,0,1,28,62.58a9.1,9.1,0,0,0,2.8,1.76l1.41.66c.33-.46.68-1,1-1.48A.92.92,0,0,0,33,62.15c-.06,0-.06,0,0,0"/><path class="cls-3" d="M68.13,61.65a13.17,13.17,0,0,1,6-1.24,41.52,41.52,0,0,1,5.58,8.09,1.68,1.68,0,0,1-1.39-.37,5.43,5.43,0,0,1-1-1.1,26.3,26.3,0,0,0-4.29-4.53A9.18,9.18,0,0,1,70.17,64l-1.46.55c-.29-.48-.59-1.07-.88-1.56a.92.92,0,0,1,.27-1.36c.06,0,.06,0,0,0"/><path class="cls-3" d="M36,65.6a11.89,11.89,0,0,0-5.56-.08A36.84,36.84,0,0,0,27,73.59,1.5,1.5,0,0,0,28.13,73a4.85,4.85,0,0,0,.66-1.13,23.32,23.32,0,0,1,3-4.72,8.34,8.34,0,0,0,2.86.86l1.39.24c.17-.48.33-1,.5-1.52a1.09,1.09,0,0,0,.08-.37c0-.33-.3-.58-.57-.79,0,0,0,0,0,0"/><path class="cls-3" d="M65.29,64.72a11.89,11.89,0,0,1,5.56-.08,36.84,36.84,0,0,1,3.49,8.07,1.5,1.5,0,0,1-1.16-.56A4.85,4.85,0,0,1,72.52,71a23.32,23.32,0,0,0-3-4.72,8.34,8.34,0,0,1-2.86.86l-1.39.24c-.17-.48-.33-1-.5-1.52a1,1,0,0,1-.08-.37c0-.33.3-.58.57-.79,0,0,0,0,0,0"/><circle class="cls-4" cx="50.01" cy="50" r="40.16"/></g></svg>