<svg id="Layer_1" data-name="Layer 1" xmlns="http://www.w3.org/2000/svg" viewBox="0 0 100.01 100"><defs><style>.cls-1{fill:#e9e9e9;}.cls-2{fill:none;stroke:#e9e9e9;stroke-miterlimit:10;stroke-width:1.27px;}</style></defs><title>sulphurdioxide_grey</title><path class="cls-1" d="M56.27,13.66a1.41,1.41,0,0,1-.07,2c-.92,1.28-.66,2.67-.85,4-.71,5,1.23,9.41,3.38,13.8,1.89,3.86,3.62,7.79,5.37,11.71C67.19,52.14,70.18,59.1,73.35,66c1.4,3,.7,5.86-.64,8.54-.82,1.63-2.9,2-4.72,2q-18.45.07-36.89,0c-2.46,0-4.27-2.54-4.62-5.7-.38-3.44,1.11-6.36,2.43-9.36Q36.26,44.7,43.57,27.9a15,15,0,0,0,.19-11.8c-.18-.46-.74-1.08,0-1.4s1,.35,1.27.83a7.13,7.13,0,0,1,1,3.32A26,26,0,0,1,43.23,32.1C39.91,39.23,37,46.54,33.67,53.69c-.75,1.62-.27,2.4,1.57,2.4h29c2.07,0,2.63-.87,1.8-2.69C63.44,47.71,60.88,42,58.28,36.29,57,33.58,55.45,31,54.62,28.16c-1.19-4-.73-8.17-.21-12.25a3.06,3.06,0,0,1,1.86-2.24M46.11,66.42a2.25,2.25,0,0,0-.74-.81,4.66,4.66,0,0,0-1.14-.54,15.55,15.55,0,0,0-1.5-.41l-.95-.24a3.11,3.11,0,0,1-.57-.23,1.33,1.33,0,0,1-.44-.35.76.76,0,0,1-.16-.48.93.93,0,0,1,.47-.77,2.16,2.16,0,0,1,1.24-.32,2,2,0,0,1,1.2.3,2.42,2.42,0,0,1,.64.82,2.19,2.19,0,0,0,.38.53.75.75,0,0,0,.52.16.82.82,0,0,0,.63-.27.87.87,0,0,0,.25-.61,1.64,1.64,0,0,0-.2-.76,2.39,2.39,0,0,0-.64-.74A3.35,3.35,0,0,0,44,61.14a5.11,5.11,0,0,0-1.56-.21,5.48,5.48,0,0,0-2,.32,2.79,2.79,0,0,0-1.28.92,2.25,2.25,0,0,0-.44,1.37,2.16,2.16,0,0,0,.42,1.35,2.84,2.84,0,0,0,1.13.86,9.6,9.6,0,0,0,1.77.55q.79.17,1.26.32a2,2,0,0,1,.77.44,1,1,0,0,1,.3.75,1.16,1.16,0,0,1-.55,1,2.43,2.43,0,0,1-1.43.39,2.36,2.36,0,0,1-1-.19,1.62,1.62,0,0,1-.61-.49,3.78,3.78,0,0,1-.4-.75,1.5,1.5,0,0,0-.37-.57.78.78,0,0,0-.53-.19.88.88,0,0,0-.64.25.79.79,0,0,0-.25.59A2.2,2.2,0,0,0,39,69.05a3.12,3.12,0,0,0,1.09,1,4.9,4.9,0,0,0,2.39.52,5.24,5.24,0,0,0,2.09-.38,3,3,0,0,0,1.34-1.06,2.65,2.65,0,0,0,.46-1.52A2.48,2.48,0,0,0,46.11,66.42Zm4.26-5.16a4.07,4.07,0,0,0-1.5,1,4.19,4.19,0,0,0-.94,1.53,5.78,5.78,0,0,0-.32,2,6,6,0,0,0,.31,2,4.21,4.21,0,0,0,.92,1.55,4.1,4.1,0,0,0,1.52,1,6.24,6.24,0,0,0,4.11,0,4,4,0,0,0,1.51-1,4.22,4.22,0,0,0,.92-1.53,6,6,0,0,0,.31-2,5.48,5.48,0,0,0-.56-2.55A3.91,3.91,0,0,0,55,61.51a5.45,5.45,0,0,0-2.62-.59A5.65,5.65,0,0,0,50.37,61.26Zm4.45,6.33a2.55,2.55,0,0,1-1,1.12,2.92,2.92,0,0,1-2.49.15,2.47,2.47,0,0,1-.88-.63,2.9,2.9,0,0,1-.6-1.07,4.6,4.6,0,0,1-.21-1.44,4.49,4.49,0,0,1,.21-1.42,2.92,2.92,0,0,1,.58-1,2.42,2.42,0,0,1,.87-.62,2.79,2.79,0,0,1,1.1-.21,2.84,2.84,0,0,1,1.48.38,2.51,2.51,0,0,1,1,1.14,4.2,4.2,0,0,1,.35,1.78A4.15,4.15,0,0,1,54.82,67.59Zm5.45,3.58a6.29,6.29,0,0,1,.83-.73l.86-.69a2.72,2.72,0,0,0,.5-.61,1.57,1.57,0,0,0,.25-.86,1.48,1.48,0,0,0-.12-.58,1.56,1.56,0,0,0-.82-.83,2.69,2.69,0,0,0-1-.18,2.51,2.51,0,0,0-.89.14,1.85,1.85,0,0,0-.63.38,1.58,1.58,0,0,0-.37.52,1.38,1.38,0,0,0-.12.55.45.45,0,0,0,.13.34.46.46,0,0,0,.33.13.43.43,0,0,0,.35-.14,1.31,1.31,0,0,0,.21-.39,1.87,1.87,0,0,1,.13-.31,1,1,0,0,1,.83-.44,1,1,0,0,1,.46.11.82.82,0,0,1,.33.3.79.79,0,0,1,.12.44,1,1,0,0,1-.12.46,1.75,1.75,0,0,1-.33.46,3.47,3.47,0,0,1-.55.45,6.27,6.27,0,0,0-.61.5q-.43.38-1,.9a1.3,1.3,0,0,0-.24.36.92.92,0,0,0-.11.36.5.5,0,0,0,.17.37.66.66,0,0,0,.47.16h3a.54.54,0,0,0,.4-.13.43.43,0,0,0,.13-.32.39.39,0,0,0-.16-.33.8.8,0,0,0-.48-.12H60.08A2.18,2.18,0,0,1,60.27,71.17Z"/><circle class="cls-2" cx="50.01" cy="50" r="40.16"/></svg>