<svg id="Layer_1" data-name="Layer 1" xmlns="http://www.w3.org/2000/svg" viewBox="0 0 100.01 100"><defs><style>.cls-1{fill:#cb514f;}.cls-2{fill:none;stroke:#cb514f;stroke-miterlimit:10;stroke-width:1.27px;}</style></defs><title>molluscs_red</title><path class="cls-1" d="M45.58,69A51,51,0,0,0,73,56.83,98.53,98.53,0,0,1,45.58,69M36.85,28.8a65.06,65.06,0,0,0-4,30.87c.74-10.36,1.62-20.7,4-30.87M48,26.74c-6.82,10-12.91,20.2-12.27,32.72.74-12,7-22.21,12.27-32.72M70.77,47.5c-8.5,8.58-19.38,14.05-29.65,20.33,11.18-5.08,22-10.6,29.65-20.33m-15.37-16c-7.72,9.63-14.16,19.9-18.21,31.38C42.73,52.14,49,41.79,55.4,31.49M38.47,65.94c9.74-8.78,19-17.94,25.7-29.07C56.23,47.07,47.1,56.31,38.47,65.94M75.64,46.71c1.63,9-2.15,20.52-14.91,23.25a33.13,33.13,0,0,1-3.32.77A4.54,4.54,0,0,0,53.25,74c-1.39,3.63-3.32,4-6.25,1.27a35.75,35.75,0,0,1-2.94-2.93,5,5,0,0,0-4.34-1.92,3.67,3.67,0,0,1-3.51-1.35c-1.56-2.34-3.9-3.59-6.4-4.7a18,18,0,0,1-3.16-1.81c-3.11-2.23-3.24-3.28-.56-6,1.27-1.29,1.05-2.56.59-4-1.39-4.33-2.37-8.69-1.71-13.31a13.89,13.89,0,0,1,5.09-9,24.22,24.22,0,0,1,16.77-5.9c14.47,0,26.49,9.36,28.84,22.31"/><circle class="cls-2" cx="50.01" cy="50" r="40.16"/></svg>